<?xml version="1.0" encoding="UTF-8"?>
<svg id="Layer_1" data-name="Layer 1" xmlns="http://www.w3.org/2000/svg" viewBox="0 0 24 24">
  <rect width="24" height="24" style="fill: none;"/>
  <path d="m12,2.02C6.5,2.02,2.02,6.5,2.02,12s4.48,9.98,9.98,9.98,9.98-4.48,9.98-9.98S17.5,2.02,12,2.02Zm-3.04,14.32h-1.74v-6.51h1.74v6.51Zm-.87-7.81c-.48,0-.87-.39-.87-.87s.39-.87.87-.87.87.39.87.87-.39.87-.87.87Zm9.11,7.81h-1.74v-3.25c0-.84-.68-1.52-1.52-1.52s-1.52.68-1.52,1.52v3.25h-1.74v-6.51h1.74v.79c.51-.49,1.19-.79,1.95-.79,1.56,0,2.82,1.26,2.82,2.82v3.69Z" style="fill: #fff;"/>
</svg>