<?xml version="1.0" encoding="UTF-8"?>
<svg id="Layer_1" data-name="Layer 1" xmlns="http://www.w3.org/2000/svg" viewBox="0 0 24 24">
  <rect width="24" height="24" style="fill: none;"/>
  <path d="m12.01,1.88C6.56,1.88,2.14,6.33,2.14,11.82s4.42,9.94,9.88,9.94,9.88-4.45,9.88-9.94S17.47,1.88,12.01,1.88Zm-.81,5.62l4.19,3.51-.7.84-4.19-3.51.7-.84Zm-1.61,2.29l4.94,2.32-.46.99-4.94-2.32.46-.99Zm-.94,2.49l5.34,1.13-.22,1.07-5.34-1.13.22-1.07Zm-.32,2.49h5.43v1.09h-5.43v-1.09Zm7.6,3.28H6.16v-4.37h1.09v3.28h7.6v-3.28h1.09v4.37Zm-.35-7.25l-3.25-4.4.87-.65,3.25,4.4-.87.65Z" style="fill: #fff;"/>
</svg>